<svg width="34" height="25" viewBox="0 0 34 25" fill="none" xmlns="http://www.w3.org/2000/svg">
<path d="M33.5 9.065C33.5742 6.91798 33.1046 4.78702 32.135 2.87C31.4771 2.0834 30.5641 1.55256 29.555 1.37C25.3813 0.991287 21.1903 0.836065 17 0.904999C12.825 0.832936 8.64907 0.983149 4.49 1.355C3.66773 1.50457 2.90678 1.89026 2.3 2.465C0.950002 3.71 0.800002 5.84 0.650002 7.64C0.43237 10.8763 0.43237 14.1237 0.650002 17.36C0.693397 18.3731 0.844243 19.3787 1.1 20.36C1.28086 21.1176 1.64679 21.8185 2.165 22.4C2.7759 23.0052 3.55458 23.4128 4.4 23.57C7.63388 23.9692 10.8923 24.1346 14.15 24.065C19.4 24.14 24.005 24.065 29.45 23.645C30.3162 23.4975 31.1168 23.0893 31.745 22.475C32.1649 22.0549 32.4786 21.5406 32.66 20.975C33.1964 19.3289 33.4599 17.6062 33.44 15.875C33.5 15.035 33.5 9.965 33.5 9.065ZM13.61 16.775V7.49L22.49 12.155C20 13.535 16.715 15.095 13.61 16.775Z" fill="#575757"/>
</svg>
